<?xml version="1.0" encoding="utf-8"?>
<COLLADA xmlns="http://www.collada.org/2005/11/COLLADASchema" version="1.4.1" xmlns:xsi="http://www.w3.org/2001/XMLSchema-instance">
  <asset>
    <contributor>
      <author>Blender User</author>
      <authoring_tool>Blender 4.3.2 commit date:2024-12-16, commit time:21:10, hash:32f5fdce0a0a</authoring_tool>
    </contributor>
    <created>2026-08-19T22:47:04</created>
    <modified>2026-08-19T22:47:04</modified>
    <unit name="meter" meter="1"/>
    <up_axis>Z_UP</up_axis>
  </asset>
  <library_images/>
  <library_geometries>
    <geometry id="pumpcylinders-mesh" name="pumpcylinders">
      <mesh>
        <source id="pumpcylinders-mesh-positions">
          <float_array id="pumpcylinders-mesh-positions-array" count="108">28.4542 8.633647 14.84045 28.4542 24.70951 16.42803 28.4542 8.633647 16.42804 28.4542 24.70951 14.84045 27.07931 24.70951 17.22183 27.07931 8.633647 17.22183 25.70442 24.70951 16.42804 25.70442 8.633647 16.42804 25.70441 24.70951 14.84045 25.70442 8.633647 14.84045 27.0793 24.70951 14.04665 27.07931 8.633647 14.04665 -1.374894 8.633644 -32.06228 0 24.70951 -32.85608 0 8.633643 -32.85608 -1.374894 24.70951 -32.06228 1.374893 24.70951 -32.06228 1.374894 8.633644 -32.06228 1.374894 24.70951 -30.47469 1.374893 8.633644 -30.47469 10e-7 24.70951 -29.6809 -10e-7 8.633644 -29.6809 -1.374892 24.70951 -30.47469 -1.374894 8.633644 -30.47469 -27.0793 8.633647 17.22183 -28.4542 24.70951 16.42804 -28.4542 8.633647 16.42804 -27.0793 24.70951 17.22183 -28.4542 24.70951 14.84045 -28.4542 8.633647 14.84045 -27.0793 24.70951 14.04665 -27.0793 8.633647 14.04666 -25.70441 24.70951 14.84045 -25.70441 8.633647 14.84045 -25.70441 24.70951 16.42804 -25.70441 8.633647 16.42804</float_array>
          <technique_common>
            <accessor source="#pumpcylinders-mesh-positions-array" count="36" stride="3">
              <param name="X" type="float"/>
              <param name="Y" type="float"/>
              <param name="Z" type="float"/>
            </accessor>
          </technique_common>
        </source>
        <source id="pumpcylinders-mesh-normals">
          <float_array id="pumpcylinders-mesh-normals-array" count="114">1 0 0 1 0 0 0.4999971 0 0.8660272 0.5000044 4.48403e-7 0.866023 -0.5000007 0 0.866025 -0.4999971 0 0.8660271 -1 -8.96805e-7 0 -1 0 7.20848e-6 -0.5000043 -2.98936e-7 -0.866023 -0.5000019 -4.48403e-7 -0.8660244 0.5000017 2.98934e-7 -0.8660244 0.5000025 0 -0.866024 0 1 1.74764e-6 0 1 0 -0.4999975 0 -0.8660269 -0.5000047 0 -0.8660228 0.5000011 0 -0.8660248 0.5000013 0 -0.8660247 1 0 6.75795e-7 1 0 -6.75795e-7 0.4999957 0 0.8660279 0.4999997 0 0.8660258 -0.4999997 0 0.8660257 -0.499996 0 0.8660278 -1 1.30784e-7 1.2765e-6 -1 0 0 0 1 -4.43645e-7 0 1 3.4953e-6 0 1 3.49526e-6 0 1 -1.83581e-6 -0.4999981 0 0.8660266 -0.4999945 0 0.8660286 -0.4999972 -5.38606e-7 -0.8660271 -0.5 0 -0.8660256 0.4999984 0 -0.8660264 0.5000028 -4.48403e-7 -0.8660238 0.5000001 0 0.8660254 0.4999966 0 0.8660274</float_array>
          <technique_common>
            <accessor source="#pumpcylinders-mesh-normals-array" count="38" stride="3">
              <param name="X" type="float"/>
              <param name="Y" type="float"/>
              <param name="Z" type="float"/>
            </accessor>
          </technique_common>
        </source>
        <source id="pumpcylinders-mesh-map-0">
          <float_array id="pumpcylinders-mesh-map-0-array" count="288">0.423697 0.344752 0.439096 0.521834 0.439096 0.344752 0.423697 0.344752 0.423696 0.521834 0.439096 0.521834 0.439096 0.344752 0.423696 0.521834 0.423696 0.344752 0.439096 0.344752 0.439096 0.521834 0.423696 0.521834 0.423696 0.344752 0.408297 0.521834 0.408297 0.344752 0.423696 0.521834 0.408297 0.521834 0.423696 0.344752 0.408297 0.344752 0.392897 0.521834 0.392897 0.344752 0.408297 0.344752 0.408297 0.521834 0.392897 0.521834 0.392898 0.344752 0.408297 0.521834 0.408297 0.344752 0.392898 0.344752 0.392897 0.521834 0.408297 0.521834 0.423696 0.521834 0.408297 0.344752 0.408297 0.521834 0.423696 0.521834 0.423697 0.344752 0.408297 0.344752 0.960847 0.180621 0.960074 0.2150869 0.975191 0.206805 0.975578 0.189572 0.960847 0.180621 0.975191 0.206805 0.960074 0.2150869 0.975578 0.189572 0.975191 0.206805 0.960074 0.2150869 0.960847 0.180621 0.975578 0.189572 0.423696 0.344752 0.439096 0.521834 0.439096 0.344752 0.423696 0.344752 0.423696 0.521834 0.439096 0.521834 0.439096 0.344752 0.423697 0.521834 0.423697 0.344752 0.439096 0.344752 0.439096 0.521834 0.423697 0.521834 0.423697 0.344752 0.408297 0.521834 0.408297 0.344752 0.423697 0.521834 0.408297 0.521834 0.423697 0.344752 0.408297 0.344752 0.392898 0.521834 0.392898 0.344752 0.408297 0.344752 0.408297 0.521834 0.392898 0.521834 0.392897 0.344752 0.408297 0.521834 0.408297 0.344752 0.392897 0.344752 0.392897 0.521834 0.408297 0.521834 0.423696 0.521834 0.408297 0.344752 0.408297 0.521834 0.423696 0.521834 0.423696 0.344752 0.408297 0.344752 0.975578 0.189572 0.960074 0.2150869 0.975191 0.206805 0.975578 0.189572 0.960847 0.180621 0.960074 0.2150869 0.960074 0.2150869 0.975578 0.189572 0.975191 0.206805 0.960074 0.2150869 0.960847 0.180621 0.975578 0.189572 0.423696 0.344752 0.439096 0.521834 0.439096 0.344752 0.423696 0.344752 0.423696 0.521834 0.439096 0.521834 0.439096 0.344752 0.423696 0.521834 0.423697 0.344752 0.439096 0.344752 0.439096 0.521834 0.423696 0.521834 0.423697 0.344752 0.408297 0.521834 0.408297 0.344752 0.423696 0.521834 0.408297 0.521834 0.423697 0.344752 0.408297 0.344752 0.392897 0.521834 0.392898 0.344752 0.408297 0.344752 0.408297 0.521834 0.392897 0.521834 0.392897 0.344752 0.408297 0.521834 0.408297 0.344752 0.392897 0.344752 0.392897 0.521834 0.408297 0.521834 0.423696 0.521834 0.408297 0.344752 0.408297 0.521834 0.423696 0.521834 0.423696 0.344752 0.408297 0.344752 0.975191 0.206805 0.960847 0.180621 0.975578 0.189572 0.975191 0.206805 0.960074 0.2150869 0.960847 0.180621 0.960847 0.180621 0.975191 0.206805 0.975578 0.189572 0.960847 0.180621 0.960074 0.2150869 0.975191 0.206805</float_array>
          <technique_common>
            <accessor source="#pumpcylinders-mesh-map-0-array" count="144" stride="2">
              <param name="S" type="float"/>
              <param name="T" type="float"/>
            </accessor>
          </technique_common>
        </source>
        <vertices id="pumpcylinders-mesh-vertices">
          <input semantic="POSITION" source="#pumpcylinders-mesh-positions"/>
        </vertices>
        <triangles count="48">
          <input semantic="VERTEX" source="#pumpcylinders-mesh-vertices" offset="0"/>
          <input semantic="NORMAL" source="#pumpcylinders-mesh-normals" offset="1"/>
          <input semantic="TEXCOORD" source="#pumpcylinders-mesh-map-0" offset="2" set="0"/>
          <p>0 0 0 1 0 1 2 0 2 0 1 3 3 1 4 1 1 5 2 2 6 4 2 7 5 2 8 2 3 9 1 3 10 4 3 11 5 4 12 6 4 13 7 4 14 4 5 15 6 5 16 5 5 17 7 6 18 8 6 19 9 6 20 7 7 21 6 7 22 8 7 23 9 8 24 10 8 25 11 8 26 9 9 27 8 9 28 10 9 29 3 10 30 11 10 31 10 10 32 3 11 33 0 11 34 11 11 35 6 12 36 3 12 37 10 12 38 8 13 39 6 13 40 10 13 41 3 13 42 4 13 43 1 13 44 3 13 45 6 13 46 4 13 47 12 14 48 13 14 49 14 14 50 12 15 51 15 15 52 13 15 53 14 16 54 16 16 55 17 16 56 14 17 57 13 17 58 16 17 59 17 18 60 18 18 61 19 18 62 16 19 63 18 19 64 17 19 65 19 20 66 20 20 67 21 20 68 19 21 69 18 21 70 20 21 71 21 22 72 22 22 73 23 22 74 21 23 75 20 23 76 22 23 77 15 24 78 23 24 79 22 24 80 15 25 81 12 25 82 23 25 83 20 26 84 15 26 85 22 26 86 20 27 87 18 27 88 15 27 89 15 28 90 16 28 91 13 28 92 15 29 93 18 29 94 16 29 95 24 30 96 25 30 97 26 30 98 24 31 99 27 31 100 25 31 101 26 25 102 28 25 103 29 25 104 26 25 105 25 25 106 28 25 107 29 32 108 30 32 109 31 32 110 28 33 111 30 33 112 29 33 113 31 34 114 32 34 115 33 34 116 31 35 117 30 35 118 32 35 119 33 1 120 34 1 121 35 1 122 33 1 123 32 1 124 34 1 125 27 36 126 35 36 127 34 36 128 27 37 129 24 37 130 35 37 131 32 13 132 27 13 133 34 13 134 32 13 135 30 13 136 27 13 137 27 13 138 28 13 139 25 13 140 27 13 141 30 13 142 28 13 143</p>
        </triangles>
      </mesh>
    </geometry>
    <geometry id="pump1-mesh" name="pump1">
      <mesh>
        <source id="pump1-mesh-positions">
          <float_array id="pump1-mesh-positions-array" count="48">2.830079 -0.36335 -0.298332 2.830081 9.890456 -11.30505 2.830077 0.363346 0.298334 2.83008 9.163756 -11.90172 -2.830077 9.890456 -11.30505 -2.830076 9.16376 -11.90173 -2.830078 -0.36335 -0.298336 -2.830078 0.36335 0.29833 1.472856 9.890456 -11.30505 1.472854 9.163756 -11.90172 -1.472851 9.16376 -11.90172 -1.472851 9.890456 -11.30505 -1.472853 2.888031 -2.776564 1.472853 2.888031 -2.776564 -1.472852 2.161331 -3.373232 1.472854 2.161331 -3.373232</float_array>
          <technique_common>
            <accessor source="#pump1-mesh-positions-array" count="16" stride="3">
              <param name="X" type="float"/>
              <param name="Y" type="float"/>
              <param name="Z" type="float"/>
            </accessor>
          </technique_common>
        </source>
        <source id="pump1-mesh-normals">
          <float_array id="pump1-mesh-normals-array" count="57">1 1.62136e-6 1.65679e-6 1 -7.09342e-7 -5.94523e-7 -1 -5.40449e-7 -7.418e-7 -1 2.70226e-7 0 0 0.6345737 -0.7728624 0 0.634573 -0.7728629 0 0.6345754 -0.772861 5.97838e-6 0.6345809 -0.7728564 0 0.7728649 0.6345707 3.74419e-7 0.7728648 0.6345707 0 0.7728647 0.6345708 0 0.7728649 0.6345706 0 0.7728648 0.6345707 1 7.81265e-7 7.77205e-7 1 0 0 -1 -7.35308e-7 -9.41148e-7 -1 1.83827e-6 1.36769e-6 0 0.6345718 -0.7728641 0 0.6345714 -0.7728644</float_array>
          <technique_common>
            <accessor source="#pump1-mesh-normals-array" count="19" stride="3">
              <param name="X" type="float"/>
              <param name="Y" type="float"/>
              <param name="Z" type="float"/>
            </accessor>
          </technique_common>
        </source>
        <source id="pump1-mesh-map-0">
          <float_array id="pump1-mesh-map-0-array" count="120">0.949408 0.364644 0.93469 0.251613 0.93469 0.364644 0.949408 0.364644 0.949408 0.251613 0.93469 0.251613 0.934745 0.251678 0.949481 0.251678 0.949481 0.364644 0.934745 0.364644 0.934745 0.251678 0.949481 0.364644 0.984637 0.270658 0.967804 0.278058 0.984637 0.278058 0.984637 0.270658 0.967804 0.270658 0.967804 0.278058 0.967804 0.270658 0.984637 0.278058 0.967804 0.278058 0.967804 0.270658 0.984637 0.270658 0.984637 0.278058 0.967804 0.383827 0.967804 0.278058 0.984637 0.278058 0.984637 0.421962 0.967804 0.383827 0.984637 0.278058 0.967804 0.383827 0.984637 0.278058 0.967804 0.278058 0.967804 0.383827 0.984637 0.421962 0.984637 0.278058 0.931272 0.383827 0.967804 0.383827 0.984637 0.421962 0.984637 0.421962 0.91444 0.421962 0.931272 0.383827 0.557312 0.224031 0.469033 0.224032 0.469033 0.235589 0.557312 0.235589 0.557312 0.224031 0.469033 0.235589 0.46916 0.235589 0.46916 0.224032 0.557312 0.224031 0.557312 0.235589 0.46916 0.235589 0.557312 0.224031 0.43293 0.235589 0.43293 0.224032 0.46916 0.224032 0.46916 0.235589 0.43293 0.235589 0.46916 0.224032</float_array>
          <technique_common>
            <accessor source="#pump1-mesh-map-0-array" count="60" stride="2">
              <param name="S" type="float"/>
              <param name="T" type="float"/>
            </accessor>
          </technique_common>
        </source>
        <vertices id="pump1-mesh-vertices">
          <input semantic="POSITION" source="#pump1-mesh-positions"/>
        </vertices>
        <triangles count="20">
          <input semantic="VERTEX" source="#pump1-mesh-vertices" offset="0"/>
          <input semantic="NORMAL" source="#pump1-mesh-normals" offset="1"/>
          <input semantic="TEXCOORD" source="#pump1-mesh-map-0" offset="2" set="0"/>
          <p>0 0 0 1 0 1 2 0 2 0 1 3 3 1 4 1 1 5 4 2 6 5 2 7 6 2 8 7 3 9 4 3 10 6 3 11 3 4 12 8 4 13 1 4 14 3 5 15 9 5 16 8 5 17 10 6 18 4 6 19 11 6 20 10 7 21 5 7 22 4 7 23 12 8 24 11 8 25 4 8 26 7 9 27 12 9 28 4 9 29 13 10 30 1 10 31 8 10 32 13 11 33 2 11 34 1 11 35 13 11 36 12 11 37 7 11 38 7 12 39 2 12 40 13 12 41 11 13 42 12 13 43 14 13 44 10 14 45 11 14 46 14 14 47 15 15 48 13 15 49 8 15 50 9 16 51 15 16 52 8 16 53 14 17 54 12 17 55 13 17 56 15 18 57 14 18 58 13 18 59</p>
        </triangles>
      </mesh>
    </geometry>
    <geometry id="pump3-mesh" name="pump3">
      <mesh>
        <source id="pump3-mesh-positions">
          <float_array id="pump3-mesh-positions-array" count="48">-3.373233 2.161335 -1.472854 -3.373231 2.161335 1.47285 -2.776561 2.888031 -1.472853 -2.776563 2.888031 1.472853 -11.90172 9.163759 -1.472856 -11.30505 9.890455 -1.472855 -11.90172 9.163759 1.47285 -11.30506 9.890455 1.47285 0.29833 0.36335 2.83008 0.298335 0.363346 -2.830079 -11.30505 9.890455 -2.83008 -11.30505 9.890459 2.830079 -11.90172 9.163759 2.830076 -11.90172 9.163759 -2.830081 -0.298335 -0.36335 2.830078 -0.298332 -0.36335 -2.830081</float_array>
          <technique_common>
            <accessor source="#pump3-mesh-positions-array" count="16" stride="3">
              <param name="X" type="float"/>
              <param name="Y" type="float"/>
              <param name="Z" type="float"/>
            </accessor>
          </technique_common>
        </source>
        <source id="pump3-mesh-normals">
          <float_array id="pump3-mesh-normals-array" count="57">-0.7728602 0.6345765 6.02556e-7 -0.7728624 0.6345738 -5.34425e-7 -9.19137e-7 -7.65331e-7 1 -1.10296e-6 -7.6533e-7 1 0 0 -1 2.38976e-6 2.27826e-6 -1 0.634571 0.7728646 0 0.6345706 0.772865 4.51797e-7 0.6345707 0.7728648 -1.49767e-6 0.6345705 0.7728651 0 0.6345709 0.7728648 -3.74418e-7 0.6345701 0.7728654 -6.48284e-6 -0.7728664 0.6345689 0 -0.7728629 0.6345732 3.59385e-6 -0.7728617 0.6345746 0 -1.35113e-6 -1.72343e-6 1 -2.1618e-6 -2.467e-6 1 8.10679e-7 7.83885e-7 -1 1.08091e-6 1.52746e-6 -1</float_array>
          <technique_common>
            <accessor source="#pump3-mesh-normals-array" count="19" stride="3">
              <param name="X" type="float"/>
              <param name="Y" type="float"/>
              <param name="Z" type="float"/>
            </accessor>
          </technique_common>
        </source>
        <source id="pump3-mesh-map-0">
          <float_array id="pump3-mesh-map-0-array" count="120">0.46916 0.235589 0.43293 0.235589 0.46916 0.224032 0.43293 0.235589 0.43293 0.224032 0.46916 0.224032 0.557312 0.235589 0.46916 0.235589 0.557312 0.224031 0.46916 0.235589 0.46916 0.224032 0.557312 0.224031 0.557312 0.235589 0.557312 0.224031 0.469032 0.235589 0.557312 0.224031 0.469032 0.224032 0.469032 0.235589 0.984637 0.421961 0.91444 0.421962 0.931272 0.383827 0.984637 0.421961 0.931272 0.383827 0.967804 0.383827 0.967804 0.383827 0.984637 0.421962 0.984637 0.278058 0.967804 0.383827 0.984637 0.278058 0.967805 0.278058 0.984637 0.421961 0.967804 0.383827 0.984637 0.278058 0.967804 0.383827 0.967804 0.278058 0.984637 0.278058 0.967804 0.270658 0.984637 0.270658 0.967804 0.278058 0.984637 0.270658 0.984637 0.278058 0.967804 0.278058 0.984637 0.270658 0.967805 0.270658 0.984637 0.278058 0.967805 0.270658 0.967805 0.278058 0.984637 0.278058 0.934745 0.364644 0.934745 0.251678 0.949481 0.364644 0.934745 0.251678 0.949481 0.251678 0.949481 0.364644 0.93469 0.364644 0.93469 0.251613 0.949408 0.251613 0.93469 0.364644 0.949408 0.251613 0.949408 0.364644</float_array>
          <technique_common>
            <accessor source="#pump3-mesh-map-0-array" count="60" stride="2">
              <param name="S" type="float"/>
              <param name="T" type="float"/>
            </accessor>
          </technique_common>
        </source>
        <vertices id="pump3-mesh-vertices">
          <input semantic="POSITION" source="#pump3-mesh-positions"/>
        </vertices>
        <triangles count="20">
          <input semantic="VERTEX" source="#pump3-mesh-vertices" offset="0"/>
          <input semantic="NORMAL" source="#pump3-mesh-normals" offset="1"/>
          <input semantic="TEXCOORD" source="#pump3-mesh-map-0" offset="2" set="0"/>
          <p>0 0 0 1 0 1 2 0 2 1 1 3 3 1 4 2 1 5 4 2 6 0 2 7 5 2 8 0 3 9 2 3 10 5 3 11 6 4 12 7 4 13 1 4 14 7 5 15 3 5 16 1 5 17 8 6 18 9 6 19 2 6 20 8 7 21 2 7 22 3 7 23 2 8 24 9 8 25 10 8 26 2 9 27 10 9 28 5 9 29 8 10 30 3 10 31 11 10 32 3 11 33 7 11 34 11 11 35 6 12 36 12 12 37 7 12 38 12 13 39 11 13 40 7 13 41 13 14 42 4 14 43 10 14 44 4 14 45 5 14 46 10 14 47 8 15 48 11 15 49 14 15 50 11 16 51 12 16 52 14 16 53 15 17 54 13 17 55 10 17 56 15 18 57 10 18 58 9 18 59</p>
        </triangles>
      </mesh>
    </geometry>
    <geometry id="base-mesh" name="base">
      <mesh>
        <source id="base-mesh-positions">
          <float_array id="base-mesh-positions-array" count="486">30.26048 8.917643 15.67176 29.13063 8.917643 12.89241 25.39601 8.917639 10.73622 21.99584 8.917643 16.62547 25.73047 8.917643 18.78166 21.99585 0.002931952 16.62547 25.73047 0.002931952 18.78166 29.13063 0.002931952 12.89241 25.396 0.002930939 10.73622 28.70238 8.917643 18.37046 28.70238 0.002931952 18.37046 30.26048 0.002931952 15.67176 -28.70238 8.917643 18.37047 -25.73046 8.917643 18.78166 -21.99584 8.917643 16.62547 -25.396 8.917639 10.73623 -29.13062 0.002931952 12.89241 -25.396 0.002930939 10.73623 -29.13062 8.917643 12.89241 -21.99584 0.002931952 16.62547 -25.73046 0.002931952 18.78166 -28.70238 0.002931952 18.37047 -30.26047 8.917643 15.67176 -30.26047 0.002931952 15.67176 -1.558097 8.917634 -34.04222 -3.400159 8.917635 -31.67407 -3.400161 8.917635 -27.3617 3.400156 8.917635 -27.36169 3.400159 8.917635 -31.67406 3.400159 0.002929925 -27.3617 3.400159 0.002929925 -31.67406 -3.400158 0.002929925 -31.67407 -3.400159 0.002929925 -27.3617 -1.558096 0.002928972 -34.04222 1.558098 8.917634 -34.04222 1.558097 0.002928972 -34.04222 13.73061 14.07669 23.78211 12.80546 15.31022 22.17969 -12.80545 15.31023 22.1797 -13.7306 14.07669 23.78212 11.88031 14.07669 20.57729 -11.8803 14.07669 20.5773 -13.7306 11.60962 23.78212 13.73061 11.60961 23.78211 11.88031 11.60961 20.57729 -11.8803 11.60962 20.5773 -27.78425 18.65405 -5.501287 -20.9205 18.65405 -1.538491 -11.79262 18.65405 -17.34843 -18.65637 18.65404 -21.31122 -30.27227 15.78111 -6.937751 -30.27227 0.002930939 -6.937745 -20.92049 0.002930939 -1.538492 -21.1444 0.002929925 -22.74768 -21.1444 15.78111 -22.74769 -11.79262 0.002929925 -17.34843 18.65638 18.65404 -21.31122 11.79263 18.65405 -17.34844 20.9205 18.65405 -1.5385 27.78425 18.65405 -5.501286 21.14442 15.78111 -22.74769 21.14441 0.002929925 -22.74769 11.79263 0.002929925 -17.34844 30.27227 0.002930939 -6.937751 30.27228 15.78111 -6.937749 20.92049 0.002930939 -1.5385 9.127868 18.65405 26.81252 9.127879 18.65405 18.88694 -9.12787 18.65405 18.88693 -9.127871 18.65405 26.81251 9.127867 15.78112 29.68545 9.127874 0.002931952 29.68544 9.127874 0.002931952 18.88693 -9.127871 0.002931952 29.68544 -9.127874 15.78112 29.68544 -9.127865 0.002931952 18.88693 -18.21071 20.2056 3.688786 -22.61258 20.2056 6.230203 -16.7018 20.2056 16.46797 -12.29993 20.2056 13.92655 -20.90727 15.29966 18.896 -12.29993 0.002931952 13.92655 -26.81804 15.29966 8.658234 -26.81804 0.002930939 8.658235 -20.90726 0.002931952 18.896 -18.21071 0.002930939 3.688787 5.910776 20.2056 -17.61533 5.910779 20.2056 -22.69816 -5.910773 20.2056 -22.69817 -5.91078 20.2056 -17.61533 -5.910776 15.29965 -27.55422 -5.910779 0.002929925 -17.61533 -5.910779 0.002929925 -27.55422 5.910777 15.29965 -27.55422 5.910776 0.002929925 -27.55422 5.910776 0.002929925 -17.61533 12.29994 20.2056 13.92655 16.7018 20.2056 16.46797 22.61258 20.2056 6.230206 18.21072 20.2056 3.688783 26.81805 15.29966 8.658232 18.21072 0.002930939 3.688784 20.90727 15.29966 18.896 20.90727 0.002931952 18.896 26.81805 0.002930939 8.658231 12.29993 0.002931952 13.92655 -9.642145 28.27636 -14.12398 9.642148 24.82689 -14.12399 -9.642145 24.82689 -14.12398 9.642148 28.27636 -14.12399 -17.0528 28.27636 -1.288347 -7.41065 24.82689 15.41233 -7.41065 28.27636 15.41233 -17.0528 24.82689 -1.288347 17.0528 28.27636 -1.288352 7.410666 24.82689 15.41233 17.0528 24.82689 -1.288352 7.410666 28.27636 15.41233 12.70254 21.09123 -18.6069 -12.70254 21.09123 -18.6069 -9.762773 21.09123 20.30417 -22.46532 21.09123 -1.697264 9.76279 21.09123 20.30417 22.46532 21.09123 -1.69727 12.70254 8.061542 -18.6069 -12.70254 8.061542 -18.6069 -9.762773 8.061545 20.30417 -22.46532 8.061545 -1.697263 9.76279 8.061545 20.30417 22.46532 8.061545 -1.69727 15.92692 3.732855 -23.90838 -15.92692 3.732855 -23.90838 -12.24094 3.732857 24.87981 -28.16787 3.732856 -2.706428 12.24096 3.732857 24.87981 28.16787 3.732856 -2.706436 15.92692 0.002929925 -23.90838 -15.92692 0.002929925 -23.90837 -12.24094 0.002931952 24.87981 -28.16787 0.002930939 -2.706428 12.24096 0.002931952 24.87981 28.16787 0.002930939 -2.706435 -27.46121 14.07669 7e-6 -25.61091 15.31022 9e-6 -23.7606 14.07669 9e-6 -27.46121 11.60961 7e-6 -23.7606 11.60961 9e-6 23.76061 11.60962 -8e-6 23.76061 14.07669 -8e-6 27.46122 14.07669 -1.6e-5 27.46122 11.60962 -1.5e-5 25.61091 15.31023 -1.1e-5 11.88029 14.07669 -20.57729 11.88029 11.60961 -20.57729 13.73059 14.07669 -23.78211 13.73059 11.60961 -23.78211 12.80544 15.31022 -22.1797 -12.80546 15.31022 -22.17969 -13.73062 14.07669 -23.78211 -11.88031 14.07669 -20.57729 -13.73062 11.60961 -23.78211 -11.88031 11.60961 -20.57729</float_array>
          <technique_common>
            <accessor source="#base-mesh-positions-array" count="162" stride="3">
              <param name="X" type="float"/>
              <param name="Y" type="float"/>
              <param name="Z" type="float"/>
            </accessor>
          </technique_common>
        </source>
        <source id="base-mesh-normals">
          <float_array id="base-mesh-normals-array" count="600">-1.3347e-6 1 0 0 1 -6.71753e-7 -0.5 -3.96914e-7 0.8660255 -0.5000017 0 0.8660246 0.5000001 -3.96914e-7 -0.8660255 0.5000013 0 -0.8660247 0.8660249 0 0.5000011 0.8660247 0 0.5000015 0.1370569 0 0.9905633 0.1370569 0 0.9905632 0.9263808 0 -0.3765884 0.9263806 0 -0.3765886 0 1 -5.16925e-7 0 1 0 0 1 9.60438e-7 -1.46527e-7 1 -5.03815e-7 -0.4999993 0 -0.8660259 -0.4999997 0 -0.8660256 0.500001 0 0.8660249 0.5000017 0 0.8660246 -0.8660267 0 0.4999977 -0.8660271 0 0.4999973 -0.9263808 0 -0.3765884 -0.9263806 0 -0.3765886 -0.1370531 0 0.9905638 -0.1370531 0 0.9905637 9.77332e-7 1 -3.56817e-7 5.17722e-7 1 0 0 1 0 1 3.37471e-7 6.63446e-7 1 0 0 -1 -1.98458e-7 -2.21149e-7 -1 0 -4.97584e-7 0 0 -1 0.7893264 0 -0.6139739 0.7893266 0 -0.6139736 -0.7893247 0 -0.6139761 -0.7893257 0 -0.6139749 0 1 -1.03384e-6 -1.92341e-7 1 0 5.2307e-7 0.7924096 0.6099895 2.74772e-7 0.7924061 0.6099939 -1.58784e-7 0.7924026 -0.6099985 0 0.7924055 -0.6099948 3.82975e-7 0 1 3.37839e-7 0 1 -4.66928e-7 0 -1 -2.60303e-7 0 -1 -7.80878e-7 1 -8.43683e-7 -0.500002 4.05358e-7 0.8660243 -0.5 0 0.8660254 -0.8660255 -2.11897e-7 -0.5 -0.8660255 -4.38806e-7 -0.4999998 0.5000002 6.70138e-7 -0.8660253 0.5000005 0 -0.8660251 -0.6123742 0.7071045 -0.353555 -0.6123722 0.707107 -0.3535535 1.04208e-6 1 -4.21842e-7 -2.61199e-7 1 -3.69112e-7 -0.4999993 2.52463e-7 -0.8660258 -0.4999997 2.84108e-7 -0.8660257 0.8660258 -4.23793e-7 -0.4999995 0.8660258 -4.46674e-7 -0.4999995 0.5000004 0 0.8660253 0.4999997 -1.51524e-7 0.8660256 0.6123715 0.707108 -0.3535526 0.6123734 0.7071056 -0.353554 0 1 4.21842e-7 0 1 4.21842e-7 1 4.74578e-7 7.5505e-7 1 2.84107e-7 0 0 -6.04426e-7 1 -4.23793e-7 0 1 -1 0 -1.20329e-7 -1 -3.03048e-7 -4.2128e-7 -6.17166e-7 0.7071072 0.7071065 -4.11444e-7 0.707107 0.7071066 0 1 1.26972e-7 0.4999998 9.17873e-7 0.8660256 0.5000001 0 0.8660253 -0.8660258 0 0.4999994 -0.8660253 -6.75052e-7 0.5000003 -0.6154937 0.7034841 0.3553556 -0.6154936 0.7034847 0.3553548 -0.5000003 0 -0.8660253 -0.4999993 -1.83575e-6 -0.8660258 0 1 5.0789e-7 0 1 -5.07889e-7 -1 2.1417e-6 -1.4072e-6 -1 0 -3.60514e-7 3.73978e-7 0.7034839 -0.7107113 0 0.703483 -0.7107121 1 0 0 1 -7.64894e-7 5.6288e-7 0.5000013 2.75362e-6 -0.8660247 0.5000004 0 -0.8660252 0.8660255 0 0.5000001 0.8660255 0 0.5000001 0.6154933 0.7034844 0.3553557 0.6154938 0.7034842 0.3553553 -0.5000005 2.27979e-7 0.8660251 -0.5000008 0 0.866025 -5.73461e-7 0 -1 -4.58769e-7 0 -1 -0.8660252 0 0.5000005 -0.8660253 0 0.5000001 0.8660256 0 0.4999996 0.8660257 0 0.4999997 -0.8660255 0 -0.4999999 0.8660255 0 -0.4999998 0.8660258 0 -0.4999993 0 0 1 0 0.7682305 -0.6401734 -2.03394e-7 0.76823 -0.640174 -0.5544066 0.7682303 0.3200868 -0.5544062 0.7682306 0.320087 0.5544068 0.7682301 0.3200868 0.5544067 0.7682304 0.3200866 -0.525609 0.7947624 -0.30346 -0.5256091 0.794762 -0.3034608 0.5256098 0.7947617 -0.3034607 0.5256089 0.7947623 -0.3034606 0 0.7947623 0.6069208 0 0.794762 0.6069212 -0.8660252 0 0.5000004 -0.8660252 1.84385e-7 0.5000004 0.8660256 0 0.4999998 0.8660256 0 0.4999997 -0.8660255 -1.68424e-7 -0.5 -0.8660256 0 -0.4999999 0.8660254 0 -0.5000001 0.8660255 0 -0.5000001 0 0.7745933 -0.6324597 0 0.7745934 -0.6324595 -0.6049705 0.7155517 0.3492802 -0.6049712 0.7155509 0.3492804 0.6049714 0.715551 0.3492799 0.6049706 0.7155517 0.3492797 -0.539039 0.7826766 -0.3112142 -0.5390389 0.7826767 -0.3112142 0.5390389 0.7826766 -0.3112143 0.5390391 0.7826765 -0.3112143 0 0.7264384 0.6872317 0 0.7264382 0.6872318 -2.56855e-7 -2.55682e-6 -1 -0.8660254 0 0.5000002 -0.8660253 0 0.5000002 0.8660258 0 0.4999997 0.8660256 0 0.4999997 -0.8660254 0 -0.5000001 -0.8660255 -1.33679e-6 -0.4999999 0.8660254 0 -0.5000001 0 1 0 -0.5282703 0.7924059 0.3049974 -0.5282706 0.792406 0.3049969 0.5282737 0.7924029 -0.3049995 0.5282673 0.7924087 -0.3049957 -0.8660256 0 0.5 -0.8660253 0 0.5000004 0.8660256 0 -0.4999996 -0.8660255 0 -0.4999998 -0.8660258 0 -0.4999995 0.8660258 9.00905e-7 0.4999994 0.8660253 0 0.5000001 -0.5282704 0.7924062 -0.3049966 -0.5282728 0.792404 -0.304998 0.5282682 0.7924078 0.3049963 0.528271 0.7924057 0.3049969 -0.8660251 0 0.5000005 -0.8660251 0 0.5000006 0.8660251 0 -0.5000007 0.8660249 -8.10679e-7 -0.5000008 -0.528272 0.7924042 0.3049985 -0.5282701 0.7924064 0.3049967 0.528268 0.7924079 -0.3049963 0.5282692 0.7924067 -0.3049972 -0.5282685 0.7924079 -0.3049957 -0.5282668 0.7924096 -0.3049941 0.5282706 0.7924062 0.3049966 0.5282685 0.7924078 0.3049957 -0.8660259 0 -0.4999993 -0.8660258 0 -0.4999996 0.866026 0 0.4999991 0.8660258 0 0.4999995 -2.20969e-7 0.7924066 -0.6099933 0 0.7924093 -0.6099899 0 0.7924062 0.6099938 2.20969e-7 0.7924066 0.6099933 -0.5000002 0 0.8660253 0.5000005 0 -0.8660252 1 0 0 -1 2.00731e-7 0 -0.5000002 0 -0.8660253 0.5000007 4.01461e-7 0.866025 -1 0 -5.29892e-7 1 -1.45531e-7 1.32362e-6 0.5 -7.16456e-7 0.8660255 -0.4999992 0 -0.8660259 0.4999997 -6.26899e-7 -0.8660257 -0.5000009 -3.4941e-7 0.866025</float_array>
          <technique_common>
            <accessor source="#base-mesh-normals-array" count="200" stride="3">
              <param name="X" type="float"/>
              <param name="Y" type="float"/>
              <param name="Z" type="float"/>
            </accessor>
          </technique_common>
        </source>
        <source id="base-mesh-map-0">
          <float_array id="base-mesh-map-0-array" count="1356">0.424805 0.259715 0.41092 0.277566 0.41092 0.310071 0.462179 0.310071 0.424805 0.259715 0.41092 0.310071 0.30955 0.218501 0.30955 0.261667 0.213418 0.261668 0.213418 0.218501 0.30955 0.218501 0.213418 0.261668 0.213419 0.2185029 0.213419 0.26167 0.309551 0.26167 0.309551 0.2185029 0.213419 0.2185029 0.309551 0.26167 0.30955 0.157276 0.30955 0.1884689 0.213418 0.1884689 0.213418 0.157276 0.30955 0.157276 0.213418 0.1884689 0.30955 0.1884689 0.213418 0.218501 0.213418 0.1884689 0.30955 0.1884689 0.30955 0.218501 0.213418 0.218501 0.309551 0.188471 0.213419 0.188471 0.213419 0.2185029 0.309551 0.2185029 0.309551 0.188471 0.213419 0.2185029 0.424805 0.259715 0.462179 0.277566 0.448294 0.259715 0.424805 0.259715 0.462179 0.310071 0.462179 0.277566 0.424805 0.259715 0.41092 0.277566 0.41092 0.310071 0.462179 0.310071 0.424805 0.259715 0.41092 0.310071 0.213418 0.218502 0.30955 0.261668 0.213418 0.261668 0.213418 0.218502 0.30955 0.218502 0.30955 0.261668 0.309551 0.218502 0.213419 0.261669 0.309551 0.261669 0.309551 0.218502 0.213419 0.218502 0.213419 0.261669 0.2134169 0.157277 0.30955 0.1884689 0.2134169 0.18847 0.2134169 0.157277 0.30955 0.157277 0.30955 0.1884689 0.30955 0.1884689 0.213418 0.218502 0.2134169 0.18847 0.30955 0.1884689 0.30955 0.218502 0.213418 0.218502 0.309551 0.218502 0.213419 0.18847 0.213419 0.218502 0.309551 0.218502 0.309551 0.18847 0.213419 0.18847 0.424805 0.259715 0.462179 0.277566 0.448294 0.259715 0.424805 0.259715 0.462179 0.310071 0.462179 0.277566 0.424805 0.259715 0.41092 0.277566 0.41092 0.310071 0.462179 0.310071 0.424805 0.259715 0.41092 0.310071 0.30955 0.218501 0.309551 0.261668 0.213419 0.261668 0.213418 0.218502 0.30955 0.218501 0.213419 0.261668 0.2134169 0.218502 0.2134169 0.261668 0.309549 0.261669 0.309549 0.2185029 0.2134169 0.218502 0.309549 0.261669 0.2134169 0.157277 0.30955 0.1884689 0.213418 0.18847 0.2134169 0.157277 0.309549 0.157276 0.30955 0.1884689 0.30955 0.1884689 0.213418 0.218502 0.213418 0.18847 0.30955 0.1884689 0.30955 0.218501 0.213418 0.218502 0.309549 0.2185029 0.213418 0.18847 0.2134169 0.218502 0.30955 0.188471 0.213418 0.18847 0.309549 0.2185029 0.424805 0.259715 0.462179 0.277566 0.448294 0.259715 0.424805 0.259715 0.462179 0.310071 0.462179 0.277566 0.403214 0.562512 0.412894 0.582167 0.63327 0.582167 0.645389 0.562512 0.403214 0.562512 0.63327 0.582167 0.63327 0.582167 0.422049 0.599993 0.62201 0.599993 0.63327 0.582167 0.412894 0.582167 0.422049 0.599993 0.403214 0.562512 0.643885 0.542431 0.40171 0.542431 0.403214 0.562512 0.645389 0.562512 0.643885 0.542431 0.62201 0.599993 0.422767 0.616616 0.622728 0.616616 0.62201 0.599993 0.422049 0.599993 0.422767 0.616616 0.519307 0.0115379 0.596797 0.0115379 0.596797 0.190029 0.519307 0.190029 0.519307 0.0115379 0.596797 0.190029 0.196492 0.1846629 0.167948 0.156118 0.01510989 0.156118 0.01510989 0.263409 0.196492 0.1846629 0.01510989 0.156118 0.479582 0.0115379 0.329181 0.190029 0.329181 0.01153898 0.479582 0.0115379 0.479582 0.190029 0.329181 0.190029 0.167948 0.156118 0.196492 0.1846629 0.196492 0.263409 0.01510989 0.263409 0.167948 0.156118 0.196492 0.263409 0.519307 0.190029 0.479582 0.0115379 0.519307 0.0115379 0.519307 0.190029 0.479582 0.190029 0.479582 0.0115379 0.519307 0.0115379 0.596797 0.0115379 0.596797 0.190029 0.519307 0.190029 0.519307 0.0115379 0.596797 0.190029 0.196492 0.1846629 0.167948 0.156119 0.01510989 0.156119 0.01510989 0.263409 0.196492 0.1846629 0.01510989 0.156119 0.479582 0.0115379 0.329181 0.190029 0.329181 0.01153898 0.479582 0.0115379 0.479582 0.190029 0.329181 0.190029 0.167948 0.156119 0.196492 0.1846629 0.196492 0.263409 0.01510989 0.263409 0.167948 0.156119 0.196492 0.263409 0.479582 0.190029 0.479582 0.0115379 0.519307 0.0115379 0.519307 0.190029 0.479582 0.190029 0.519307 0.0115379 0.519307 0.0115379 0.596797 0.0115379 0.596797 0.190029 0.519307 0.190029 0.519307 0.0115379 0.596797 0.190029 0.196492 0.1846629 0.167948 0.156118 0.01510989 0.156118 0.01510989 0.263409 0.196492 0.1846629 0.01510989 0.156118 0.479582 0.0115379 0.329181 0.190029 0.329181 0.01153898 0.479582 0.0115379 0.479583 0.190029 0.329181 0.190029 0.167948 0.156118 0.196492 0.1846629 0.196492 0.263409 0.01510989 0.263409 0.167948 0.156118 0.196492 0.263409 0.519307 0.190029 0.479582 0.0115379 0.519307 0.0115379 0.519307 0.190029 0.479583 0.190029 0.479582 0.0115379 0.311101 0.00940895 0.255914 0.00940895 0.255914 0.1377609 0.311101 0.1377609 0.311101 0.00940895 0.255914 0.1377609 0.691417 0.987911 0.63623 0.987911 0.583506 0.934645 0.691417 0.76803 0.691417 0.987911 0.583506 0.934645 0.180966 0.1377609 0.180966 0.00940895 0.01435196 0.00940895 0.01435196 0.1377609 0.180966 0.1377609 0.01435196 0.00940895 0.255914 0.1377609 0.255914 0.00940895 0.180966 0.00940895 0.180966 0.1377609 0.255914 0.1377609 0.180966 0.00940895 0.583506 0.934645 0.691417 0.987911 0.691417 0.76803 0.583506 0.934645 0.63623 0.987911 0.691417 0.987911 0.311101 0.00940895 0.255914 0.00940895 0.255914 0.1377609 0.311101 0.1377609 0.311101 0.00940895 0.255914 0.1377609 0.691417 0.987911 0.63623 0.987911 0.583506 0.934645 0.691417 0.76803 0.691417 0.987911 0.583506 0.934645 0.01435196 0.1377609 0.180966 0.00940895 0.01435196 0.00940895 0.01435196 0.1377609 0.180966 0.1377609 0.180966 0.00940895 0.255914 0.1377609 0.255914 0.00940895 0.180966 0.00940895 0.180966 0.1377609 0.255914 0.1377609 0.180966 0.00940895 0.583506 0.934645 0.691417 0.987911 0.691417 0.76803 0.583506 0.934645 0.63623 0.987911 0.691417 0.987911 0.311101 0.00940895 0.255914 0.00940895 0.255914 0.1377609 0.311101 0.1377609 0.311101 0.00940895 0.255914 0.1377609 0.691417 0.987911 0.63623 0.987911 0.583506 0.934645 0.691417 0.76803 0.691417 0.987911 0.583506 0.934645 0.180966 0.1377609 0.180966 0.00940895 0.01435196 0.00940895 0.01435196 0.1377609 0.180966 0.1377609 0.01435196 0.00940895 0.255914 0.1377609 0.255914 0.00940895 0.180966 0.00940895 0.180966 0.1377609 0.255914 0.1377609 0.180966 0.00940895 0.583506 0.934645 0.691417 0.987911 0.691417 0.76803 0.583506 0.934645 0.63623 0.987911 0.691417 0.987911 0.07046699 0.636758 0.276216 0.673561 0.07046699 0.673561 0.07046699 0.636758 0.276216 0.636758 0.276216 0.673561 0.07046699 0.636758 0.276216 0.673561 0.276216 0.636758 0.07046699 0.636758 0.07046699 0.673561 0.276216 0.673561 0.07046699 0.636758 0.276216 0.673561 0.07046699 0.673561 0.07046699 0.636758 0.276216 0.636758 0.276216 0.673561 0.535709 0.993462 0.37479 0.95601 0.37479 0.993462 0.535709 0.993462 0.535709 0.95601 0.37479 0.95601 0.535709 0.993462 0.37479 0.95601 0.37479 0.993462 0.535709 0.993462 0.535709 0.95601 0.37479 0.95601 0.535709 0.993462 0.37479 0.95601 0.37479 0.993462 0.535709 0.993462 0.535709 0.95601 0.37479 0.95601 0.07046699 0.673561 0.311853 0.735819 0.04080092 0.735819 0.07046699 0.673561 0.276216 0.673561 0.311853 0.735819 0.07046699 0.673561 0.311853 0.735819 0.276216 0.673561 0.07046699 0.673561 0.04080092 0.735819 0.311853 0.735819 0.07046699 0.673561 0.311853 0.735819 0.04080092 0.735819 0.07046699 0.673561 0.276216 0.673561 0.311853 0.735819 0.535709 0.95601 0.349252 0.889182 0.37479 0.95601 0.535709 0.95601 0.561247 0.889182 0.349252 0.889182 0.535709 0.95601 0.349252 0.889182 0.37479 0.95601 0.535709 0.95601 0.561247 0.889182 0.349252 0.889182 0.535709 0.95601 0.349252 0.889182 0.37479 0.95601 0.535709 0.95601 0.561247 0.889182 0.349252 0.889182 0.04080092 0.735819 0.311853 0.874836 0.04080092 0.874836 0.04080092 0.735819 0.311853 0.735819 0.311853 0.874836 0.04080092 0.735819 0.311853 0.874836 0.311853 0.735819 0.04080092 0.735819 0.04080092 0.874836 0.311853 0.874836 0.04080092 0.735819 0.311853 0.874836 0.04080092 0.874836 0.04080092 0.735819 0.311853 0.735819 0.311853 0.874836 0.561247 0.889182 0.349252 0.747715 0.349252 0.889182 0.561247 0.889182 0.561247 0.747715 0.349252 0.747715 0.561247 0.889182 0.349252 0.747715 0.349252 0.889182 0.561247 0.889182 0.561247 0.747715 0.349252 0.747715 0.561247 0.889182 0.349252 0.747715 0.349252 0.889182 0.561247 0.889182 0.561247 0.747715 0.349252 0.747715 0.04080092 0.874836 0.349087 0.947858 0.009232997 0.947858 0.04080092 0.874836 0.311853 0.874836 0.349087 0.947858 0.04080092 0.874836 0.349087 0.947858 0.311853 0.874836 0.04080092 0.874836 0.009232997 0.947858 0.349087 0.947858 0.04080092 0.874836 0.349087 0.947858 0.009232997 0.947858 0.04080092 0.874836 0.311853 0.874836 0.349087 0.947858 0.561247 0.747715 0.322346 0.675768 0.349252 0.747715 0.561247 0.747715 0.588153 0.675768 0.322346 0.675768 0.588153 0.675768 0.322346 0.675768 0.349252 0.747715 0.561247 0.747715 0.588153 0.675768 0.349252 0.747715 0.588153 0.675768 0.322346 0.675768 0.349252 0.747715 0.561247 0.747715 0.588153 0.675768 0.349252 0.747715 0.009232997 0.947858 0.349087 0.992493 0.009232997 0.992493 0.009232997 0.947858 0.349087 0.947858 0.349087 0.992493 0.009232997 0.947858 0.349087 0.992493 0.349087 0.947858 0.009232997 0.947858 0.009232997 0.992493 0.349087 0.992493 0.009232997 0.947858 0.349087 0.992493 0.009232997 0.992493 0.009232997 0.947858 0.349087 0.947858 0.349087 0.992493 0.588153 0.637221 0.322346 0.637221 0.322346 0.675768 0.588153 0.675768 0.588153 0.637221 0.322346 0.675768 0.588153 0.675768 0.322346 0.637221 0.322346 0.675768 0.588153 0.675768 0.588153 0.637221 0.322346 0.637221 0.588153 0.675768 0.322346 0.637221 0.322346 0.675768 0.588153 0.675768 0.588153 0.637221 0.322346 0.637221 0.641317 0.345733 0.657833 0.127127 0.76753 0.127127 0.641317 0.345733 0.586469 0.250733 0.657833 0.127127 0.838894 0.250733 0.641317 0.345733 0.76753 0.127127 0.838894 0.250733 0.784046 0.345733 0.641317 0.345733 0.888064 0.597349 0.655357 0.577678 0.875913 0.577678 0.888064 0.597349 0.645691 0.597349 0.655357 0.577678 0.655357 0.577678 0.662095 0.560169 0.86324 0.560169 0.875913 0.577678 0.655357 0.577678 0.86324 0.560169 0.645691 0.597349 0.886581 0.617447 0.644208 0.617447 0.645691 0.597349 0.888064 0.597349 0.886581 0.617447 0.86324 0.560169 0.662818 0.543448 0.863962 0.543448 0.86324 0.560169 0.662095 0.560169 0.662818 0.543448 0.86324 0.560169 0.662818 0.543448 0.863962 0.543448 0.86324 0.560169 0.662095 0.560169 0.662818 0.543448 0.645691 0.597349 0.886581 0.617447 0.644208 0.617447 0.645691 0.597349 0.888064 0.597349 0.886581 0.617447 0.875913 0.577678 0.662095 0.560169 0.86324 0.560169 0.875913 0.577678 0.655357 0.577678 0.662095 0.560169 0.888064 0.597349 0.655357 0.577678 0.875913 0.577678 0.888064 0.597349 0.645691 0.597349 0.655357 0.577678 0.422049 0.599993 0.422767 0.616616 0.622728 0.616616 0.62201 0.599993 0.422049 0.599993 0.622728 0.616616 0.403214 0.562512 0.643885 0.542431 0.40171 0.542431 0.403214 0.562512 0.645389 0.562512 0.643885 0.542431 0.63327 0.582167 0.422049 0.599993 0.62201 0.599993 0.63327 0.582167 0.412894 0.582167 0.422049 0.599993 0.403214 0.562512 0.412894 0.582167 0.63327 0.582167 0.645389 0.562512 0.403214 0.562512 0.63327 0.582167 0.403214 0.562512 0.412894 0.582167 0.63327 0.582167 0.645389 0.562512 0.403214 0.562512 0.63327 0.582167 0.63327 0.582167 0.422049 0.599993 0.62201 0.599993 0.63327 0.582167 0.412894 0.582167 0.422049 0.599993 0.403214 0.562512 0.643885 0.542431 0.40171 0.542431 0.403214 0.562512 0.645389 0.562512 0.643885 0.542431 0.62201 0.599993 0.422767 0.616616 0.622728 0.616616 0.62201 0.599993 0.422049 0.599993 0.422767 0.616616 0.655357 0.577678 0.875913 0.577678 0.888064 0.597349 0.888064 0.597349 0.645691 0.597349 0.655357 0.577678 0.655357 0.577678 0.662095 0.560169 0.86324 0.560169 0.875913 0.577678 0.655357 0.577678 0.86324 0.560169 0.888064 0.597349 0.886581 0.617447 0.644208 0.617447 0.645691 0.597349 0.888064 0.597349 0.644208 0.617447 0.86324 0.560169 0.662818 0.543448 0.863962 0.543448 0.86324 0.560169 0.662095 0.560169 0.662818 0.543448 0.583506 0.76803 0.583506 0.934645 0.691417 0.76803 0.691417 0.76803 0.583506 0.934645 0.583506 0.76803 0.583506 0.76803 0.583506 0.934645 0.691417 0.76803 0.691417 0.76803 0.583506 0.934645 0.583506 0.76803 0.583506 0.76803 0.583506 0.934645 0.691417 0.76803 0.691417 0.76803 0.583506 0.934645 0.583506 0.76803 0.167948 0.156118 0.01510989 0.263409 0.01510989 0.156118 0.196492 0.1846629 0.01510989 0.263409 0.196492 0.263409 0.167948 0.156119 0.01510989 0.263409 0.01510989 0.156119 0.196492 0.1846629 0.01510989 0.263409 0.196492 0.263409 0.167948 0.156118 0.01510989 0.263409 0.01510989 0.156118 0.196492 0.1846629 0.01510989 0.263409 0.196492 0.263409</float_array>
          <technique_common>
            <accessor source="#base-mesh-map-0-array" count="678" stride="2">
              <param name="S" type="float"/>
              <param name="T" type="float"/>
            </accessor>
          </technique_common>
        </source>
        <vertices id="base-mesh-vertices">
          <input semantic="POSITION" source="#base-mesh-positions"/>
        </vertices>
        <triangles count="226">
          <input semantic="VERTEX" source="#base-mesh-vertices" offset="0"/>
          <input semantic="NORMAL" source="#base-mesh-normals" offset="1"/>
          <input semantic="TEXCOORD" source="#base-mesh-map-0" offset="2" set="0"/>
          <p>0 0 0 1 0 1 2 0 2 3 1 3 0 1 4 2 1 5 4 2 6 3 2 7 5 2 8 6 3 9 4 3 10 5 3 11 7 4 12 8 4 13 2 4 14 1 5 15 7 5 16 2 5 17 0 6 18 9 6 19 10 6 20 11 7 21 0 7 22 10 7 23 9 8 24 6 8 25 10 8 26 9 9 27 4 9 28 6 9 29 0 10 30 11 10 31 7 10 32 1 11 33 0 11 34 7 11 35 0 12 36 4 12 37 9 12 38 0 13 39 3 13 40 4 13 41 12 14 42 13 14 43 14 14 44 15 15 45 12 15 46 14 15 47 16 16 48 15 16 49 17 16 50 16 17 51 18 17 52 15 17 53 13 18 54 19 18 55 14 18 56 13 19 57 20 19 58 19 19 59 21 20 60 22 20 61 23 20 62 21 21 63 12 21 64 22 21 65 22 22 66 16 22 67 23 22 68 22 23 69 18 23 70 16 23 71 13 24 72 21 24 73 20 24 74 13 25 75 12 25 76 21 25 77 12 13 78 18 13 79 22 13 80 12 26 81 15 26 82 18 26 83 24 27 84 25 27 85 26 27 86 27 28 87 24 28 88 26 28 89 28 29 90 27 29 91 29 29 92 30 30 93 28 30 94 29 30 95 31 31 96 32 31 97 26 31 98 25 32 99 31 32 100 26 32 101 33 33 102 34 33 103 35 33 104 33 33 105 24 33 106 34 33 107 34 34 108 30 34 109 35 34 110 34 35 111 28 35 112 30 35 113 25 36 114 33 36 115 31 36 116 24 37 117 33 37 118 25 37 119 24 38 120 28 38 121 34 38 122 24 39 123 27 39 124 28 39 125 36 40 126 37 40 127 38 40 128 39 41 129 36 41 130 38 41 131 38 42 132 40 42 133 41 42 134 38 43 135 37 43 136 40 43 137 36 44 138 42 44 139 43 44 140 36 45 141 39 45 142 42 45 143 41 46 144 44 46 145 45 46 146 41 47 147 40 47 148 44 47 149 46 13 150 47 13 151 48 13 152 49 48 153 46 48 154 48 48 155 46 49 156 50 49 157 51 49 158 52 50 159 46 50 160 51 50 161 50 51 162 53 51 163 51 51 164 50 52 165 54 52 166 53 52 167 54 53 168 49 53 169 48 53 170 55 54 171 54 54 172 48 54 173 49 55 174 50 55 175 46 55 176 49 56 177 54 56 178 50 56 179 56 57 180 57 57 181 58 57 182 59 58 183 56 58 184 58 58 185 56 59 186 60 59 187 61 59 188 62 60 189 56 60 190 61 60 191 60 61 192 63 61 193 61 61 194 60 62 195 64 62 196 63 62 197 64 63 198 59 63 199 58 63 200 65 64 201 64 64 202 58 64 203 64 65 204 60 65 205 56 65 206 59 66 207 64 66 208 56 66 209 66 67 210 67 67 211 68 67 212 69 68 213 66 68 214 68 68 215 66 69 216 70 69 217 71 69 218 72 70 219 66 70 220 71 70 221 70 71 222 73 71 223 71 71 224 70 72 225 74 72 226 73 72 227 74 73 228 69 73 229 68 73 230 75 74 231 74 74 232 68 74 233 69 75 234 70 75 235 66 75 236 69 76 237 74 76 238 70 76 239 76 13 240 77 13 241 78 13 242 79 77 243 76 77 244 78 77 245 79 78 246 78 78 247 80 78 248 81 79 249 79 79 250 80 79 251 80 80 252 82 80 253 83 80 254 84 81 255 80 81 256 83 81 257 78 82 258 77 82 259 82 82 260 80 83 261 78 83 262 82 83 263 82 84 264 76 84 265 85 84 266 82 85 267 77 85 268 76 85 269 86 86 270 87 86 271 88 86 272 89 87 273 86 87 274 88 87 275 89 88 276 88 88 277 90 88 278 91 89 279 89 89 280 90 89 281 92 33 282 93 33 283 94 33 284 92 33 285 90 33 286 93 33 287 88 90 288 87 90 289 93 90 290 90 91 291 88 91 292 93 91 293 93 92 294 86 92 295 95 92 296 93 93 297 87 93 298 86 93 299 96 13 300 97 13 301 98 13 302 99 13 303 96 13 304 98 13 305 99 94 306 98 94 307 100 94 308 101 95 309 99 95 310 100 95 311 100 96 312 102 96 313 103 96 314 104 97 315 100 97 316 103 97 317 98 98 318 97 98 319 102 98 320 100 99 321 98 99 322 102 99 323 102 100 324 96 100 325 105 100 326 102 101 327 97 101 328 96 101 329 106 102 330 107 102 331 108 102 332 106 103 333 109 103 334 107 103 335 110 104 336 111 104 337 112 104 338 110 105 339 113 105 340 111 105 341 114 106 342 115 106 343 116 106 344 114 107 345 117 107 346 115 107 347 106 108 348 113 108 349 110 108 350 106 108 351 108 108 352 113 108 353 114 109 354 107 109 355 109 109 356 114 110 357 116 110 358 107 110 359 112 111 360 115 111 361 117 111 362 112 111 363 111 111 364 115 111 365 108 112 366 118 112 367 119 112 368 108 113 369 107 113 370 118 113 371 113 114 372 120 114 373 111 114 374 113 115 375 121 115 376 120 115 377 116 116 378 122 116 379 123 116 380 116 117 381 115 117 382 122 117 383 108 118 384 121 118 385 113 118 386 108 119 387 119 119 388 121 119 389 116 120 390 118 120 391 107 120 392 116 121 393 123 121 394 118 121 395 111 122 396 122 122 397 115 122 398 111 123 399 120 123 400 122 123 401 119 33 402 124 33 403 125 33 404 119 33 405 118 33 406 124 33 407 121 124 408 126 124 409 120 124 410 121 125 411 127 125 412 126 125 413 123 126 414 128 126 415 129 126 416 123 127 417 122 127 418 128 127 419 119 128 420 127 128 421 121 128 422 119 129 423 125 129 424 127 129 425 123 130 426 124 130 427 118 130 428 123 131 429 129 131 430 124 131 431 120 111 432 128 111 433 122 111 434 120 111 435 126 111 436 128 111 437 125 132 438 130 132 439 131 132 440 125 133 441 124 133 442 130 133 443 127 134 444 132 134 445 126 134 446 127 135 447 133 135 448 132 135 449 129 136 450 134 136 451 135 136 452 129 137 453 128 137 454 134 137 455 125 138 456 133 138 457 127 138 458 125 139 459 131 139 460 133 139 461 135 140 462 130 140 463 124 140 464 129 141 465 135 141 466 124 141 467 132 142 468 134 142 469 128 142 470 126 143 471 132 143 472 128 143 473 131 144 474 136 144 475 137 144 476 131 33 477 130 33 478 136 33 479 133 145 480 138 145 481 132 145 482 133 146 483 139 146 484 138 146 485 135 147 486 140 147 487 141 147 488 135 148 489 134 148 490 140 148 491 137 149 492 139 149 493 133 149 494 131 150 495 137 150 496 133 150 497 135 151 498 136 151 499 130 151 500 135 151 501 141 151 502 136 151 503 132 111 504 140 111 505 134 111 506 132 111 507 138 111 508 140 111 509 106 13 510 112 13 511 117 13 512 106 13 513 110 13 514 112 13 515 114 152 516 106 152 517 117 152 518 114 13 519 109 13 520 106 13 521 142 153 522 38 153 523 143 153 524 142 154 525 39 154 526 38 154 527 38 155 528 41 155 529 144 155 530 143 156 531 38 156 532 144 156 533 39 157 534 145 157 535 42 157 536 39 158 537 142 158 538 145 158 539 144 159 540 45 159 541 146 159 542 144 131 543 41 131 544 45 131 545 40 160 546 147 160 547 44 160 548 40 161 549 148 161 550 147 161 551 149 162 552 43 162 553 150 162 554 149 163 555 36 163 556 43 163 557 37 164 558 148 164 559 40 164 560 37 165 561 151 165 562 148 165 563 36 166 564 151 166 565 37 166 566 36 167 567 149 167 568 151 167 569 152 168 570 153 168 571 147 168 572 148 169 573 152 169 574 147 169 575 154 170 576 150 170 577 155 170 578 154 171 579 149 171 580 150 171 581 151 172 582 152 172 583 148 172 584 151 173 585 156 173 586 152 173 587 154 174 588 156 174 589 151 174 590 149 175 591 154 175 592 151 175 593 142 176 594 143 176 595 157 176 596 158 177 597 142 177 598 157 177 599 157 178 600 144 178 601 159 178 602 157 179 603 143 179 604 144 179 605 142 180 606 160 180 607 145 180 608 142 181 609 158 181 610 160 181 611 159 182 612 146 182 613 161 182 614 159 183 615 144 183 616 146 183 617 157 184 618 156 184 619 154 184 620 154 185 621 158 185 622 157 185 623 157 186 624 159 186 625 152 186 626 156 187 627 157 187 628 152 187 629 154 33 630 155 33 631 160 33 632 158 33 633 154 33 634 160 33 635 152 111 636 161 111 637 153 111 638 152 111 639 159 111 640 161 111 641 103 188 642 102 188 643 105 188 644 101 189 645 100 189 646 104 189 647 94 190 648 93 190 649 95 190 650 91 191 651 90 191 652 92 191 653 83 192 654 82 192 655 85 192 656 81 193 657 80 193 658 84 193 659 74 194 660 75 194 661 73 194 662 66 195 663 72 195 664 67 195 665 64 196 666 65 196 667 63 196 668 56 197 669 62 197 670 57 197 671 54 198 672 55 198 673 53 198 674 46 199 675 52 199 676 47 199 677</p>
        </triangles>
      </mesh>
    </geometry>
    <geometry id="pump2-mesh" name="pump2">
      <mesh>
        <source id="pump2-mesh-positions">
          <float_array id="pump2-mesh-positions-array" count="48">0.298332 -0.36335 2.830081 11.30505 9.890455 2.830081 -0.298335 0.363346 2.830078 11.90172 9.163759 2.830079 11.30505 9.890459 -2.830076 11.90172 9.163759 -2.830075 0.298334 -0.36335 -2.830076 -0.298335 0.36335 -2.830078 11.30505 9.890455 1.472854 11.90172 9.163759 1.472856 11.30505 9.890455 -1.472848 11.90172 9.163759 -1.47285 2.776564 2.888031 -1.472852 2.77656 2.888031 1.472855 3.373232 2.161335 -1.472852 3.37323 2.161335 1.472855</float_array>
          <technique_common>
            <accessor source="#pump2-mesh-positions-array" count="16" stride="3">
              <param name="X" type="float"/>
              <param name="Y" type="float"/>
              <param name="Z" type="float"/>
            </accessor>
          </technique_common>
        </source>
        <source id="pump2-mesh-normals">
          <float_array id="pump2-mesh-normals-array" count="60">-1.89159e-6 2.41663e-6 1 1.38491e-6 -1.48715e-6 1 8.10676e-7 -7.43574e-7 -1 1.62135e-6 -1.48715e-6 -1 0.7728614 0.634575 0 0.7728615 0.6345748 0 0.7728626 0.6345736 2.2419e-6 0.7728617 0.6345745 0 -0.6345707 0.7728649 2.54706e-6 -0.6345707 0.7728649 2.24651e-6 -0.6345705 0.772865 0 -0.6345707 0.7728648 1.87209e-6 -0.6345698 0.7728656 -8.95109e-7 -0.634571 0.7728646 5.50539e-7 -2.52763e-7 -2.33079e-7 1 1.28679e-6 -1.7823e-6 1 -1.83827e-7 0 -1 1.65445e-6 -1.60406e-6 -1 0.7728611 0.6345753 1.04957e-6 0.7728626 0.6345736 5.16477e-7</float_array>
          <technique_common>
            <accessor source="#pump2-mesh-normals-array" count="20" stride="3">
              <param name="X" type="float"/>
              <param name="Y" type="float"/>
              <param name="Z" type="float"/>
            </accessor>
          </technique_common>
        </source>
        <source id="pump2-mesh-map-0">
          <float_array id="pump2-mesh-map-0-array" count="120">0.949408 0.364644 0.93469 0.251613 0.93469 0.364644 0.949408 0.364644 0.949408 0.251613 0.93469 0.251613 0.934745 0.251678 0.949481 0.251678 0.949481 0.364644 0.934745 0.364644 0.934745 0.251678 0.949481 0.364644 0.984637 0.270658 0.967804 0.278058 0.984637 0.278058 0.984637 0.270658 0.967804 0.270658 0.967804 0.278058 0.984637 0.270658 0.984637 0.278058 0.967804 0.278058 0.967804 0.270658 0.984637 0.270658 0.967804 0.278058 0.967804 0.383827 0.967804 0.278058 0.984637 0.278058 0.984637 0.421961 0.967804 0.383827 0.984637 0.278058 0.967804 0.383827 0.984637 0.278058 0.967804 0.278058 0.967804 0.383827 0.984637 0.421962 0.984637 0.278058 0.931272 0.383827 0.967804 0.383827 0.984637 0.421961 0.984637 0.421961 0.91444 0.421961 0.931272 0.383827 0.557312 0.224031 0.469032 0.224032 0.469033 0.235589 0.557312 0.235589 0.557312 0.224031 0.469033 0.235589 0.46916 0.235589 0.46916 0.224032 0.557312 0.224031 0.557312 0.235589 0.46916 0.235589 0.557312 0.224031 0.46916 0.235589 0.43293 0.224032 0.46916 0.224032 0.43293 0.235589 0.43293 0.224032 0.46916 0.235589</float_array>
          <technique_common>
            <accessor source="#pump2-mesh-map-0-array" count="60" stride="2">
              <param name="S" type="float"/>
              <param name="T" type="float"/>
            </accessor>
          </technique_common>
        </source>
        <vertices id="pump2-mesh-vertices">
          <input semantic="POSITION" source="#pump2-mesh-positions"/>
        </vertices>
        <triangles count="20">
          <input semantic="VERTEX" source="#pump2-mesh-vertices" offset="0"/>
          <input semantic="NORMAL" source="#pump2-mesh-normals" offset="1"/>
          <input semantic="TEXCOORD" source="#pump2-mesh-map-0" offset="2" set="0"/>
          <p>0 0 0 1 0 1 2 0 2 0 1 3 3 1 4 1 1 5 4 2 6 5 2 7 6 2 8 7 3 9 4 3 10 6 3 11 3 4 12 8 4 13 1 4 14 3 5 15 9 5 16 8 5 17 5 6 18 4 6 19 10 6 20 11 7 21 5 7 22 10 7 23 12 8 24 10 8 25 4 8 26 7 9 27 12 9 28 4 9 29 13 10 30 1 10 31 8 10 32 13 11 33 2 11 34 1 11 35 13 12 36 12 12 37 7 12 38 7 13 39 2 13 40 13 13 41 10 14 42 12 14 43 14 14 44 11 15 45 10 15 46 14 15 47 15 16 48 13 16 49 8 16 50 9 17 51 15 17 52 8 17 53 15 18 54 12 18 55 13 18 56 14 19 57 12 19 58 15 19 59</p>
        </triangles>
      </mesh>
    </geometry>
  </library_geometries>
  <library_visual_scenes>
    <visual_scene id="Scene" name="Scene">
      <node id="pumpcylinders" name="pumpcylinders" type="NODE">
        <matrix sid="transform">1 0 0 0 0 -2.8213e-7 -1 0 0 1 -2.8213e-7 0 0 0 0 1</matrix>
        <instance_geometry url="#pumpcylinders-mesh" name="pumpcylinders"/>
      </node>
      <node id="pump1" name="pump1" type="NODE">
        <matrix sid="transform">1 0 0 0 0 -2.8213e-7 -1 0 0 1 -2.8213e-7 0 0 0 0 1</matrix>
        <instance_geometry url="#pump1-mesh" name="pump1"/>
      </node>
      <node id="pump3" name="pump3" type="NODE">
        <matrix sid="transform">1 0 0 0 0 -2.8213e-7 -1 0 0 1 -2.8213e-7 0 0 0 0 1</matrix>
        <instance_geometry url="#pump3-mesh" name="pump3"/>
      </node>
      <node id="base" name="base" type="NODE">
        <matrix sid="transform">1 0 0 0 0 -2.8213e-7 -1 0 0 1 -2.8213e-7 0 0 0 0 1</matrix>
        <instance_geometry url="#base-mesh" name="base"/>
      </node>
      <node id="pump2" name="pump2" type="NODE">
        <matrix sid="transform">1 0 0 0 0 -2.8213e-7 -1 0 0 1 -2.8213e-7 0 0 0 0 1</matrix>
        <instance_geometry url="#pump2-mesh" name="pump2"/>
      </node>
    </visual_scene>
  </library_visual_scenes>
  <scene>
    <instance_visual_scene url="#Scene"/>
  </scene>
</COLLADA>